<mxfile host="app.diagrams.net" modified="2024-07-08T07:07:46.112Z" agent="Mozilla/5.0 (Windows NT 10.0; Win64; x64; rv:127.0) Gecko/20100101 Firefox/127.0" etag="SK52oO7r-kyYnnKkNgfr" version="24.6.4" type="github">
  <diagram name="StrÃ¡nka-1" id="crMhWeq3Qa_O3-UlQLSa">
    <mxGraphModel dx="819" dy="419" grid="1" gridSize="10" guides="1" tooltips="1" connect="1" arrows="1" fold="1" page="1" pageScale="1" pageWidth="827" pageHeight="1169" math="0" shadow="0">
      <root>
        <mxCell id="0" />
        <mxCell id="1" parent="0" />
        <mxCell id="huPsJXAEsS9WHW0CVLMM-18" value="" style="whiteSpace=wrap;html=1;aspect=fixed;fillColor=#ffe6cc;strokeColor=#d79b00;" vertex="1" parent="1">
          <mxGeometry x="250" y="210" width="280" height="280" as="geometry" />
        </mxCell>
        <mxCell id="huPsJXAEsS9WHW0CVLMM-8" value="" style="whiteSpace=wrap;html=1;aspect=fixed;glass=0;rounded=0;shadow=0;" vertex="1" parent="1">
          <mxGeometry x="260" y="220" width="80" height="80" as="geometry" />
        </mxCell>
        <mxCell id="huPsJXAEsS9WHW0CVLMM-11" value="" style="whiteSpace=wrap;html=1;aspect=fixed;glass=0;rounded=0;shadow=0;" vertex="1" parent="1">
          <mxGeometry x="440" y="310" width="80" height="80" as="geometry" />
        </mxCell>
        <mxCell id="huPsJXAEsS9WHW0CVLMM-13" value="" style="whiteSpace=wrap;html=1;aspect=fixed;glass=0;rounded=0;shadow=0;" vertex="1" parent="1">
          <mxGeometry x="260" y="310" width="80" height="80" as="geometry" />
        </mxCell>
        <mxCell id="huPsJXAEsS9WHW0CVLMM-14" value="" style="whiteSpace=wrap;html=1;aspect=fixed;glass=0;rounded=0;shadow=0;" vertex="1" parent="1">
          <mxGeometry x="440" y="400" width="80" height="80" as="geometry" />
        </mxCell>
        <mxCell id="huPsJXAEsS9WHW0CVLMM-15" value="" style="whiteSpace=wrap;html=1;aspect=fixed;glass=0;rounded=0;shadow=0;" vertex="1" parent="1">
          <mxGeometry x="350" y="400" width="80" height="80" as="geometry" />
        </mxCell>
        <mxCell id="huPsJXAEsS9WHW0CVLMM-16" value="" style="whiteSpace=wrap;html=1;aspect=fixed;glass=0;rounded=0;shadow=0;" vertex="1" parent="1">
          <mxGeometry x="260" y="400" width="80" height="80" as="geometry" />
        </mxCell>
        <mxCell id="huPsJXAEsS9WHW0CVLMM-19" value="" style="group" vertex="1" connectable="0" parent="1">
          <mxGeometry x="350" y="220" width="180" height="275" as="geometry" />
        </mxCell>
        <mxCell id="huPsJXAEsS9WHW0CVLMM-9" value="" style="whiteSpace=wrap;html=1;aspect=fixed;glass=0;rounded=0;shadow=0;" vertex="1" parent="huPsJXAEsS9WHW0CVLMM-19">
          <mxGeometry width="80" height="80" as="geometry" />
        </mxCell>
        <mxCell id="huPsJXAEsS9WHW0CVLMM-10" value="" style="whiteSpace=wrap;html=1;aspect=fixed;glass=0;rounded=0;shadow=0;" vertex="1" parent="huPsJXAEsS9WHW0CVLMM-19">
          <mxGeometry x="90" width="80" height="80" as="geometry" />
        </mxCell>
        <mxCell id="huPsJXAEsS9WHW0CVLMM-12" value="" style="whiteSpace=wrap;html=1;aspect=fixed;glass=0;rounded=0;shadow=0;" vertex="1" parent="huPsJXAEsS9WHW0CVLMM-19">
          <mxGeometry y="90" width="80" height="80" as="geometry" />
        </mxCell>
      </root>
    </mxGraphModel>
  </diagram>
</mxfile>
